# xmcd
#
# Track frame offsets:
#	150
#	15586
#	29565
#	44362
#	59462
#	75682
#	93061
#	114970
#	130887
#	144907
#	161014
#	174002
#
# Disc length: 2541 seconds
#
# Revision: 1
# Processed by: cddbd v1.5.2PL0 Copyright (c) Steve Scherf et al.
# Submitted via: audiograbber 1.83.01
#
DISCID=8c09eb0c
DTITLE=Amber Lawrence - The Mile
DYEAR=2007
DGENRE=Country
TTITLE0=Feels Fine
TTITLE1=Things That Bring Me Down
TTITLE2=Won't Let Our Love Die
TTITLE3=Good Girls
TTITLE4=Just Us
TTITLE5=Gonna Fly
TTITLE6=The Mile
TTITLE7=You Saved Me
TTITLE8=The Tide
TTITLE9=Soldier
TTITLE10=Love You Like No Other
TTITLE11=Hole In My Head
EXTD=
EXTT0=
EXTT1=
EXTT2=
EXTT3=
EXTT4=
EXTT5=
EXTT6=
EXTT7=
EXTT8=
EXTT9=
EXTT10=
EXTT11=
PLAYORDER=
